Coordinates
version=1
nRows=38
nColumns=12
inDegrees=yes

Units are S.I. units (second, meters, Newtons, ...)
Angles are in degrees

endheader
time	SC_y	SC_z	SC_x	AC_y	AC_z	AC_x	GH_y	GH_z	GH_yy	EL_x	PS_y
       0.0              -44.83          8.261          21.25          38.26         -15.42          6.335         -86.72          35.82          156.0          42.04          18.16
  0.008739              -44.83           8.26          21.25          38.26         -15.42          6.335         -86.68          35.81          156.0          42.04          18.15
   0.01748              -44.82           8.26          21.26          38.26         -15.42          6.335         -86.64          35.81          155.9          42.04          18.15
   0.02622              -44.82          8.259          21.26          38.27         -15.42          6.334          -86.6           35.8          155.9          42.04          18.15
   0.03496              -44.82          8.258          21.27          38.27         -15.42          6.334         -86.56          35.79          155.8          42.03          18.15
   0.04369              -44.81          8.258          21.28          38.27         -15.42          6.334         -86.51          35.78          155.8          42.03          18.14
   0.05243              -44.81          8.257          21.28          38.28         -15.41          6.334         -86.46          35.78          155.7          42.03          18.14
   0.06117               -44.8          8.256          21.29          38.28         -15.41          6.333          -86.4          35.77          155.7          42.03          18.14
   0.06991               -44.8          8.255           21.3          38.29         -15.41          6.333         -86.35          35.76          155.6          42.03          18.14
   0.07865              -44.79          8.254           21.3          38.29         -15.41          6.333         -86.28          35.75          155.5          42.03          18.13
   0.08739              -44.79          8.253          21.31           38.3          -15.4          6.332         -86.22          35.74          155.5          42.03          18.13
   0.09613              -44.78          8.251          21.32           38.3          -15.4          6.332         -86.14          35.73          155.4          42.03          18.13
    0.1049              -44.77           8.25          21.33          38.31          -15.4          6.332         -86.07          35.71          155.3          42.02          18.12
    0.1136              -44.77          8.249          21.34          38.32          -15.4          6.331         -85.98           35.7          155.2          42.02          18.12
    0.1223              -44.76          8.247          21.35          38.32         -15.39          6.331         -85.89          35.69          155.1          42.02          18.11
    0.1311              -44.75          8.246          21.37          38.33         -15.39           6.33         -85.79          35.67          155.0          42.02          18.11
    0.1398              -44.74          8.244          21.38          38.34         -15.38           6.33         -85.69          35.65          154.9          42.02           18.1
    0.1486              -44.73          8.242          21.39          38.35         -15.38          6.329         -85.57          35.63          154.7          42.01           18.1
    0.1573              -44.72           8.24          21.41          38.36         -15.37          6.329         -85.44          35.61          154.6          42.01          18.09
     0.166              -44.71          8.237          21.43          38.37         -15.37          6.328          -85.3          35.59          154.4          42.01          18.08
    0.1748              -44.69          8.235          21.45          38.38         -15.36          6.327         -85.15          35.57          154.3           42.0          18.07
    0.1835              -44.68          8.232          21.47           38.4         -15.36          6.326         -84.98          35.54          154.1           42.0          18.07
    0.1923              -44.66          8.229          21.49          38.41         -15.35          6.325          -84.8          35.51          153.9           42.0          18.06
     0.201              -44.65          8.225          21.52          38.43         -15.34          6.324         -84.59          35.48          153.6          41.99          18.05
    0.2097              -44.63          8.222          21.54          38.44         -15.33          6.323         -84.36          35.44          153.4          41.99          18.03
    0.2185               -44.6          8.217          21.58          38.47         -15.32          6.322         -84.11           35.4          153.1          41.98          18.02
    0.2272              -44.58          8.213          21.61          38.49         -15.31           6.32         -83.82          35.36          152.8          41.98          18.01
     0.236              -44.55          8.207          21.65          38.51          -15.3          6.319          -83.5           35.3          152.4          41.97          17.99
    0.2447              -44.52          8.201           21.7          38.54         -15.29          6.317         -83.13          35.25          152.0          41.96          17.97
    0.2534              -44.48          8.194          21.75          38.57         -15.27          6.315         -82.72          35.18          151.6          41.95          17.95
    0.2622              -44.44          8.186          21.81          38.61         -15.25          6.312         -82.25          35.11          151.0          41.94          17.92
    0.2709               -44.4          8.177          21.88          38.66         -15.23           6.31         -81.71          35.02          150.4          41.93           17.9
    0.2796              -44.34          8.167          21.95           38.7         -15.21          6.307         -81.08          34.92          149.7          41.92          17.86
    0.2884              -44.28          8.155          22.04          38.76         -15.18          6.303         -80.36           34.8          148.9           41.9          17.83
    0.2971              -44.21           8.14          22.15          38.83         -15.15          6.299         -79.51          34.67          148.0          41.88          17.78
    0.3059              -44.12          8.123          22.28          38.91         -15.11          6.294         -78.51          34.51          146.9          41.86          17.73
    0.3146              -44.02          8.104          22.42           39.0         -15.07          6.288         -77.32          34.32          145.5          41.84          17.67
    0.3233              -43.89           8.08           22.6          39.12         -15.01           6.28         -75.89          34.09          143.9          41.81           17.6
